/* XPM */
static char *result[] = {
/* columns rows colors chars-per-pixel */
"40 40 2 1 ",
"  c black",
". c #C96628",
/* pixels */
"                                        ",
"                                        ",
"        ........................        ",
"        ........................        ",
"        ........................        ",
"        ........................        ",
"      ..                        ....    ",
"      ..                        ....    ",
"      ..                        ....    ",
"  ....                              ....",
"  ....                              ....",
"  ....                              ....",
"  ....                              ....",
"  ....                              ....",
"  ....                              ....",
"  ....                              ....",
"  ....                              ....",
"  ....                              ....",
"  ....                              ....",
"  ....                              ....",
"  ....                ..........    ....",
"  ....                ..........    ....",
"  ....                ..........    ....",
"  ....                              ....",
"  ....                              ....",
"  ....        ..................    ....",
"  ....        ..................    ....",
"  ....        ..................    ....",
"  ....        ..................    ....",
"  ....                              ....",
"  ....                              ....",
"  ....                              ....",
"  ....  ........................    ....",
"  ....  ........................    ....",
"  ....  ........................    ....",
"  ....  ........................    ....",
"  ....                              ....",
"  ....                              ....",
"  ....                              ....",
"  ....                              ...."
};
